<?xml version="1.0" encoding="utf-8"?>
<!-- Generator: Adobe Illustrator 21.0.2, SVG Export Plug-In . SVG Version: 6.00 Build 0)  -->
<svg version="1.1" id="Layer_1" xmlns="http://www.w3.org/2000/svg" xmlns:xlink="http://www.w3.org/1999/xlink" x="0px" y="0px"
	 viewBox="0 0 1000 1000" style="enable-background:new 0 0 1000 1000;" xml:space="preserve">
<style type="text/css">
	.st0{fill:#4A4544;}
</style>
<path id="XMLID_1_" class="st0" d="M338.2,627.7c2.1,10.7,3.9,20.6,6,30.4c2.7,12.3,2.2,24.2-2.5,35.9c-3.3,8.1-6.3,16.3-9.7,25.3
	c2.4,0,4.5,0,6.5,0c61.9,0,123.8,0,185.8,0c118.6,0,237.3,0,355.9,0c3.4,0,6.9-0.1,10.2,0.4c12.3,1.9,20.6,9.6,26.6,19.9
	c12.1,20.8,6.3,47.4-13.2,61.4c-4.7,3.3-10,5.7-16,5.7c-9.6,0-19.3,0-29,0.7c2.3,0.8,4.6,1.7,6.9,2.4c19.3,5.5,32.9,18.2,43.6,34.6
	c18.7,28.8,20.2,76.8-5.9,109.1c-9.8,12.1-21.6,21.4-36.5,26.1c-10.4,3.3-21.3,3.4-32,1.9c-17.3-2.4-31-11.3-42.4-24.2
	c-18.6-21-25.1-45.7-22.6-73.3c1.9-20.4,9.7-38.1,23.4-53.1c10.1-11.1,22.4-18.9,37.1-22.5c0.7-0.2,1.4-0.4,2-0.6
	c0.3-0.1,0.6-0.4,1.3-0.8c-171.3,0-342.1,0-514,0c2.6,0.9,4.4,1.5,6.2,2.1c29.1,9,46.5,29.5,54.8,57.8c7.3,24.6,5.3,49.1-6.6,72.1
	c-8,15.5-19.6,27.8-35,36c-6.6,3.5-13.8,6-21.4,6.6c-9.2,0.8-18.3,0.9-27.3-1.3c-12.3-3-22.8-9.4-31.8-18.1
	c-34.1-32.8-33.5-82.8-16.8-113.2c8.7-15.8,20.7-28.2,37.1-36.2c4.1-2,8.8-3,13.2-4.5c1-0.3,1.9-0.7,2.8-1.6
	c-7.5,0-14.9-0.4-22.3,0.1c-23.4,1.7-38.1-19-40.9-34.7c-1.6-9-0.4-17.5,2.3-26c5.1-16.5,12.4-32.1,19.6-47.7
	c4-8.6,8-17.2,12.2-25.7c1.2-2.5,1.6-4.9,1.1-7.8c-12.9-68.2-25.7-136.4-38.6-204.5c-12.5-66.6-25.1-133.2-37.6-199.8
	c-9.6-51.1-19.3-102.2-28.9-153.3c-0.2-0.9-0.4-1.7-0.8-3.2c-2.1,0-4.2,0-6.3,0c-37.3,0-74.7-0.9-112,0.3
	C17.6,105.4,2,84.8,0.3,66.4C-1.5,48,4.7,33,20.1,22.2c4.4-3,9.3-4.5,14.5-5.3c2.5-0.4,5-0.3,7.5-0.3c48.8,0,97.6-0.1,146.5,0.1
	c4.6,0,9.3,0.5,13.7,1.7c11.4,3.2,19.1,11,23.7,21.7c4.6,10.6,7,21.8,8.8,33.2c1.6,10.1,3.2,20.1,4.9,30.5c1.5,0.2,2.9,0.4,4.2,0.4
	c1.6,0.1,3.2,0,4.8,0c236,0,472,0,708,0c3.6,0,7.1,0.4,10.7,0.9c17.4,2.3,31,21.7,32,37.3c0.2,3,0.4,6.1,0.4,9.1
	c0,114.7,0,229.4,0.1,344.1c0,13-2.6,24.9-11.3,35c-5.4,6.3-11.8,10.9-20.3,12.1c-12.1,1.7-24.1,3.4-36.2,5
	c-17.6,2.4-35.2,4.8-52.7,7.1c-14.7,2-29.5,3.8-44.3,5.8c-17.6,2.4-35.2,4.8-52.7,7.1c-14.6,1.9-29.2,3.8-43.7,5.7
	c-17.6,2.3-35.2,4.8-52.7,7.1c-14.7,2-29.5,3.9-44.3,5.8c-17.6,2.4-35.2,4.8-52.7,7.1c-14.6,1.9-29.2,3.8-43.7,5.8
	c-17.8,2.4-35.5,4.9-53.3,7.2c-16,2.1-32,4-48,6.1c-13.5,1.8-26.9,4-40.4,5.8c-7.3,1-14.6,1.7-21.9,2.6c-12.3,1.6-24.5,3.2-36.8,4.8
	C342.8,626.3,340.8,627.1,338.2,627.7z"/>
</svg>
