<?xml version="1.0" encoding="utf-8"?>
<!-- Generator: Adobe Illustrator 20.0.0, SVG Export Plug-In . SVG Version: 6.00 Build 0)  -->
<svg version="1.1" id="Layer_1" xmlns="http://www.w3.org/2000/svg" xmlns:xlink="http://www.w3.org/1999/xlink" x="0px" y="0px"
	 viewBox="0 0 1000 500" style="enable-background:new 0 0 100 500;" xml:space="preserve" preserveAspectRatio="none">
<style type="text/css">
	.st0{fill:#4A4544;}
</style>
<path id="XMLID_1_" class="st0" d="M-0.8,48.6c0-16.2,0-32.4,0-48.6C332.8,0,666.4,0,1000,0c0,16.2,0,32.4,0,48.6
	c-1.1,1-2.3,2-3.4,2.9C876.3,154.5,756,257.4,635.7,360.3c-44.3,37.9-88.6,75.7-132.9,113.6c-1,0.8-2,1.6-3.1,2.4
	c-1-0.8-1.8-1.5-2.7-2.3c-41.3-35.4-82.7-70.8-124-106.2c-91.3-78.1-182.6-156.2-273.9-234.3C66.2,105.4,33.2,77.2,0.2,49
	C0,48.7-0.4,48.7-0.8,48.6z"/>
</svg>