<?xml version="1.0" encoding="utf-8"?>
<!-- Generator: Adobe Illustrator 20.0.0, SVG Export Plug-In . SVG Version: 6.00 Build 0)  -->
<svg version="1.1" id="Layer_1" xmlns="http://www.w3.org/2000/svg" xmlns:xlink="http://www.w3.org/1999/xlink" x="0px" y="0px"
	 viewBox="0 0 431.7 60.7" style="enable-background:new 0 0 431.7 60.7;" xml:space="preserve">
<style type="text/css">
	.st0{fill:#FFFFFF;}
</style>
<g>
	<circle class="st0" cx="22.9" cy="28.6" r="7.4"/>
	<path class="st0" d="M73.9,47.3c-4.5,0-8-1.5-14.2-6l-30-22.4c-1.8-1.3-4.3-2.1-6.8-2.1c-6.5,0-11.8,5.3-11.8,11.8
		c0,3.9,1.9,7.5,5.1,9.7c1.6,1.1,2,3.3,0.9,4.9c-1.1,1.6-3.3,2-4.9,0.9c-5.1-3.5-8.2-9.3-8.2-15.5c0-10.3,8.4-18.8,18.8-18.8
		c3.9,0,7.8,1.2,10.9,3.4l30,22.5c5.9,4.3,7.8,4.6,10,4.6c6.5,0,11.8-5.3,11.8-11.7c0-3.7-1.7-7.1-4.7-9.4c-1.5-1.2-1.8-3.4-0.7-4.9
		c1.2-1.5,3.4-1.8,4.9-0.7c4.7,3.6,7.5,9,7.5,15C92.6,38.9,84.2,47.3,73.9,47.3z"/>
	<path class="st0" d="M104.9,12.4h16.3l12,22.2l12-22.2h16.3v34.5h-10.3V22.2H151l-13.9,24.8h-7.9l-13.9-24.8h-0.1v24.8h-10.3V12.4z
		"/>
	<path class="st0" d="M166.9,33.5c0-9.2,4.6-11.2,11.3-11.2h6.4c9.7,0,13.7,2.1,13.7,10.5v4.1h-22.2v1.5c0,2.6,1.8,3.3,5.6,3.3h2.8
		c5,0,5.2-1.3,5.2-2.8h8.6v1.1c0,6.1-5.4,7.4-12.1,7.4h-6.9c-6.1,0-12.4-1.1-12.4-11.5V33.5z M189.4,31.4c0-2.9-1.3-3.4-6.7-3.4
		c-6,0-6.7,0.5-6.7,3.4H189.4z"/>
	<path class="st0" d="M205.7,29.2h-4.6v-6.6h4.6v-5.7h9.2v5.7H229v6.6h-14.2v9.3c0,1.8,1.3,2.2,3.5,2.2c3,0,3.8-0.7,3.8-2.9v-1.6h8
		v3c0,4.6-3.1,8.2-10.3,8.2h-3.6c-5.6,0-10.5-1.8-10.5-8.5V29.2z"/>
	<path class="st0" d="M235.1,35.6h10.6c0,3.7,1.5,4,4.6,4h13c2.2,0,4.5-0.2,4.5-2.9c0-3-1.2-3.2-14.9-3.2
		c-15.9,0-17.7-1.9-17.7-10.4c0-6.2,0.6-11.1,13.9-11.1h14.8c12.2,0,13.4,4.1,13.4,10.2v1.1h-10.6c0-2.5-0.3-3.6-5.2-3.6h-11.7
		c-2.4,0-4,0.8-4,2.7c0,3,1.3,3.1,12.6,3.1c16.5,0,20.3,1,20.3,11c0,9.3-3.1,10.8-17.2,10.8h-12.8c-9.6,0-13.5-1.8-13.5-9.3V35.6z"
		/>
	<path class="st0" d="M283.6,33.5c0-9.2,4.6-11.2,11.3-11.2h6.4c9.7,0,13.7,2.1,13.7,10.5v4.1h-22.2v1.5c0,2.6,1.8,3.3,5.6,3.3h2.8
		c5,0,5.2-1.3,5.2-2.8h8.6v1.1c0,6.1-5.4,7.4-12.1,7.4H296c-6.1,0-12.4-1.1-12.4-11.5V33.5z M306.1,31.4c0-2.9-1.3-3.4-6.7-3.4
		c-6,0-6.7,0.5-6.7,3.4H306.1z"/>
	<path class="st0" d="M320.1,22.6h9.2v3.9h0.1c1.6-3.4,4.8-4.3,9.7-4.3c5.7,0,13.6,0.2,13.6,10.7v14h-9.2V33c0-2.4-1.9-3.6-5.9-3.6
		h-2.1c-3.9,0-6.2,1.8-6.2,5.3v12.3h-9.2V22.6z"/>
	<path class="st0" d="M367.5,39.4c0,1.3,0.5,2.2,5.7,2.2h3.2c4.3,0,5.4-0.3,5.4-1.8c0-1.4-0.7-2-4-2h-8.6c-8.5,0-11.1-1.9-11.1-8.6
		c0-6.1,4.9-7,11.2-7h6.4c12,0,14.1,1.7,14.2,7.4h-9.2c-0.5-1.4-1.3-1.7-6.8-1.7c-5.3,0-6.3,0.1-6.3,1.8c0,1,0.7,1.4,5.5,1.4h6.3
		c11,0,11.8,3.7,11.8,8c0,6.4-2.6,8.1-13,8.1h-8.7c-8.4,0-11.5-2-11.5-8H367.5z"/>
	<path class="st0" d="M395.5,33.5c0-9.2,4.6-11.2,11.3-11.2h6.4c9.7,0,13.7,2.1,13.7,10.5v4.1h-22.2v1.5c0,2.6,1.8,3.3,5.6,3.3h2.8
		c5,0,5.2-1.3,5.2-2.8h8.6v1.1c0,6.1-5.4,7.4-12.1,7.4H408c-6.1,0-12.4-1.1-12.4-11.5V33.5z M418,31.4c0-2.9-1.3-3.4-6.7-3.4
		c-6,0-6.7,0.5-6.7,3.4H418z"/>
</g>
</svg>
