<svg id="Layer_1" xmlns="http://www.w3.org/2000/svg" viewBox="0 0 431.7 60.7"><style>.st0{fill:#fff}</style><circle class="st0" cx="22.9" cy="28.6" r="7.4"/><path class="st0" d="M73.9 47.3c-4.5 0-8-1.5-14.2-6l-30-22.4c-1.8-1.3-4.3-2.1-6.8-2.1-6.5 0-11.8 5.3-11.8 11.8 0 3.9 1.9 7.5 5.1 9.7 1.6 1.1 2 3.3.9 4.9-1.1 1.6-3.3 2-4.9.9C7.1 40.6 4 34.8 4 28.6 4 18.3 12.4 9.8 22.8 9.8c3.9 0 7.8 1.2 10.9 3.4l30 22.5c5.9 4.3 7.8 4.6 10 4.6 6.5 0 11.8-5.3 11.8-11.7 0-3.7-1.7-7.1-4.7-9.4-1.5-1.2-1.8-3.4-.7-4.9 1.2-1.5 3.4-1.8 4.9-.7 4.7 3.6 7.5 9 7.5 15 .1 10.3-8.3 18.7-18.6 18.7zm31-34.9h16.3l12 22.2 12-22.2h16.3v34.5h-10.3V22.2h-.2L137.1 47h-7.9l-13.9-24.8h-.1V47h-10.3V12.4zm62 21.1c0-9.2 4.6-11.2 11.3-11.2h6.4c9.7 0 13.7 2.1 13.7 10.5v4.1h-22.2v1.5c0 2.6 1.8 3.3 5.6 3.3h2.8c5 0 5.2-1.3 5.2-2.8h8.6V40c0 6.1-5.4 7.4-12.1 7.4h-6.9c-6.1 0-12.4-1.1-12.4-11.5v-2.4zm22.5-2.1c0-2.9-1.3-3.4-6.7-3.4-6 0-6.7.5-6.7 3.4h13.4zm16.3-2.2h-4.6v-6.6h4.6v-5.7h9.2v5.7H229v6.6h-14.2v9.3c0 1.8 1.3 2.2 3.5 2.2 3 0 3.8-.7 3.8-2.9v-1.6h8v3c0 4.6-3.1 8.2-10.3 8.2h-3.6c-5.6 0-10.5-1.8-10.5-8.5v-9.7zm29.4 6.4h10.6c0 3.7 1.5 4 4.6 4h13c2.2 0 4.5-.2 4.5-2.9 0-3-1.2-3.2-14.9-3.2-15.9 0-17.7-1.9-17.7-10.4 0-6.2.6-11.1 13.9-11.1h14.8c12.2 0 13.4 4.1 13.4 10.2v1.1h-10.6c0-2.5-.3-3.6-5.2-3.6h-11.7c-2.4 0-4 .8-4 2.7 0 3 1.3 3.1 12.6 3.1 16.5 0 20.3 1 20.3 11 0 9.3-3.1 10.8-17.2 10.8h-12.8c-9.6 0-13.5-1.8-13.5-9.3v-2.4zm48.5-2.1c0-9.2 4.6-11.2 11.3-11.2h6.4c9.7 0 13.7 2.1 13.7 10.5v4.1h-22.2v1.5c0 2.6 1.8 3.3 5.6 3.3h2.8c5 0 5.2-1.3 5.2-2.8h8.6V40c0 6.1-5.4 7.4-12.1 7.4H296c-6.1 0-12.4-1.1-12.4-11.5v-2.4zm22.5-2.1c0-2.9-1.3-3.4-6.7-3.4-6 0-6.7.5-6.7 3.4h13.4zm14-8.8h9.2v3.9h.1c1.6-3.4 4.8-4.3 9.7-4.3 5.7 0 13.6.2 13.6 10.7v14h-9.2V33c0-2.4-1.9-3.6-5.9-3.6h-2.1c-3.9 0-6.2 1.8-6.2 5.3V47h-9.2V22.6zm47.4 16.8c0 1.3.5 2.2 5.7 2.2h3.2c4.3 0 5.4-.3 5.4-1.8 0-1.4-.7-2-4-2h-8.6c-8.5 0-11.1-1.9-11.1-8.6 0-6.1 4.9-7 11.2-7h6.4c12 0 14.1 1.7 14.2 7.4h-9.2c-.5-1.4-1.3-1.7-6.8-1.7-5.3 0-6.3.1-6.3 1.8 0 1 .7 1.4 5.5 1.4h6.3c11 0 11.8 3.7 11.8 8 0 6.4-2.6 8.1-13 8.1h-8.7c-8.4 0-11.5-2-11.5-8h9.5zm28-5.9c0-9.2 4.6-11.2 11.3-11.2h6.4c9.7 0 13.7 2.1 13.7 10.5v4.1h-22.2v1.5c0 2.6 1.8 3.3 5.6 3.3h2.8c5 0 5.2-1.3 5.2-2.8h8.6V40c0 6.1-5.4 7.4-12.1 7.4H408c-6.1 0-12.4-1.1-12.4-11.5v-2.4zm22.5-2.1c0-2.9-1.3-3.4-6.7-3.4-6 0-6.7.5-6.7 3.4H418z"/></svg>